<svg xmlns="http://www.w3.org/2000/svg" width="692.8" height="427" viewBox="226.2 89 692.8 427"><style>#g1 circle.pindot{fill:none;stroke:none;pointer-events:fill}#g1 circle,#g1 path,#g1 polygon,#g1 polyline,circle,path,polygon,polyline,rect{shape-rendering:crispEdges}path,polygon,polyline{stroke-linejoin:round}</style><path fill="#FFFFFF" d="M226.2 89H919v427H226.2z"/><g id="g1" xmlns="http://www.w3.org/2000/svg"><g id="gge612"><text x="488.125" y="292" fill="#000080" font-family="Arial" font-size="7pt" id="gge614">PIC16F1829-IP</text><text x="489.133" y="283" fill="#000080" font-family="Arial" font-size="7pt" id="gge616">U1</text><rect id="gge618" x="445" y="295" rx="1" ry="1" width="100" height="140" stroke="#880000" stroke-width="1" fill="none" shape-rendering="crispEdges"/><g id="gge619"><circle class="pindot" cx="425" cy="425" r="2" fill="#4F4F4F"/><path d="M425 425h20" fill="none" stroke="#FF0000"/><text x="448" y="428" font-family="Verdana" font-size="7pt" fill="#FF0000">VDD</text><text x="439" y="424" font-family="Verdana" font-size="7pt" fill="#FF0000" text-anchor="end">1</text></g><g id="gge626"><circle class="pindot" cx="425" cy="355" r="2" fill="#4F4F4F"/><path d="M425 355h20" fill="none" stroke="#880000"/><text x="448" y="358" font-family="Verdana" font-size="7pt" fill="#0000FF">RA5</text><text x="439" y="354" font-family="Verdana" font-size="7pt" fill="#0000FF" text-anchor="end">2</text></g><g id="gge633"><circle class="pindot" cx="425" cy="345" r="2" fill="#4F4F4F"/><path d="M425 345h20" fill="none" stroke="#880000"/><text x="448" y="348" font-family="Verdana" font-size="7pt" fill="#0000FF">RA4</text><text x="439" y="344" font-family="Verdana" font-size="7pt" fill="#0000FF" text-anchor="end">3</text></g><g id="gge640"><circle class="pindot" cx="425" cy="335" r="2" fill="#4F4F4F"/><path d="M425 335h20" fill="none" stroke="#FF0000"/><text x="448" y="338" font-family="Verdana" font-size="7pt" fill="#FF0000">RA3MCLRVPP</text><text x="439" y="334" font-family="Verdana" font-size="7pt" fill="#FF0000" text-anchor="end">4</text></g><g id="gge647"><circle class="pindot" cx="565" cy="355" r="2" fill="#4F4F4F"/><path d="M565 355h-20" fill="none" stroke="#880000"/><text x="542" y="358" font-family="Verdana" font-size="7pt" fill="#0000FF" text-anchor="end">RC5</text><text x="551" y="354" font-family="Verdana" font-size="7pt" fill="#0000FF">5</text></g><g id="gge654"><circle class="pindot" cx="565" cy="345" r="2" fill="#4F4F4F"/><path d="M565 345h-20" fill="none" stroke="#880000"/><text x="542" y="348" font-family="Verdana" font-size="7pt" fill="#0000FF" text-anchor="end">RC4</text><text x="551" y="344" font-family="Verdana" font-size="7pt" fill="#0000FF">6</text></g><g id="gge661"><circle class="pindot" cx="565" cy="335" r="2" fill="#4F4F4F"/><path d="M565 335h-20" fill="none" stroke="#880000"/><text x="542" y="338" font-family="Verdana" font-size="7pt" fill="#0000FF" text-anchor="end">RC3</text><text x="551" y="334" font-family="Verdana" font-size="7pt" fill="#0000FF">7</text></g><g id="gge668"><circle class="pindot" cx="565" cy="365" r="2" fill="#4F4F4F"/><path d="M565 365h-20" fill="none" stroke="#880000"/><text x="542" y="368" font-family="Verdana" font-size="7pt" fill="#0000FF" text-anchor="end">RC6</text><text x="551" y="364" font-family="Verdana" font-size="7pt" fill="#0000FF">8</text></g><g id="gge675"><circle class="pindot" cx="565" cy="375" r="2" fill="#4F4F4F"/><path d="M565 375h-20" fill="none" stroke="#880000"/><text x="542" y="378" font-family="Verdana" font-size="7pt" fill="#0000FF" text-anchor="end">RC7</text><text x="551" y="374" font-family="Verdana" font-size="7pt" fill="#0000FF">9</text></g><g id="gge682"><circle class="pindot" cx="425" cy="405" r="2" fill="#4F4F4F"/><path d="M425 405h20" fill="none" stroke="#880000"/><text x="448" y="408" font-family="Verdana" font-size="7pt" fill="#0000FF">RB7</text><text x="439" y="404" font-family="Verdana" font-size="7pt" fill="#0000FF" text-anchor="end">10</text></g><g id="gge689"><circle class="pindot" cx="425" cy="395" r="2" fill="#4F4F4F"/><path d="M425 395h20" fill="none" stroke="#880000"/><text x="448" y="398" font-family="Verdana" font-size="7pt" fill="#0000FF">RB6</text><text x="439" y="394" font-family="Verdana" font-size="7pt" fill="#0000FF" text-anchor="end">11</text></g><g id="gge696"><circle class="pindot" cx="425" cy="385" r="2" fill="#4F4F4F"/><path d="M425 385h20" fill="none" stroke="#880000"/><text x="448" y="388" font-family="Verdana" font-size="7pt" fill="#0000FF">RB5</text><text x="439" y="384" font-family="Verdana" font-size="7pt" fill="#0000FF" text-anchor="end">12</text></g><g id="gge703"><circle class="pindot" cx="425" cy="375" r="2" fill="#4F4F4F"/><path d="M425 375h20" fill="none" stroke="#880000"/><text x="448" y="378" font-family="Verdana" font-size="7pt" fill="#0000FF">RB4</text><text x="439" y="374" font-family="Verdana" font-size="7pt" fill="#0000FF" text-anchor="end">13</text></g><g id="gge710"><circle class="pindot" cx="565" cy="325" r="2" fill="#4F4F4F"/><path d="M565 325h-20" fill="none" stroke="#880000"/><text x="542" y="328" font-family="Verdana" font-size="7pt" fill="#0000FF" text-anchor="end">RC2</text><text x="551" y="324" font-family="Verdana" font-size="7pt" fill="#0000FF">14</text></g><g id="gge717"><circle class="pindot" cx="565" cy="315" r="2" fill="#4F4F4F"/><path d="M565 315h-20" fill="none" stroke="#880000"/><text x="542" y="318" font-family="Verdana" font-size="7pt" fill="#0000FF" text-anchor="end">RC1</text><text x="551" y="314" font-family="Verdana" font-size="7pt" fill="#0000FF">15</text></g><g id="gge724"><circle class="pindot" cx="565" cy="305" r="2" fill="#4F4F4F"/><path d="M565 305h-20" fill="none" stroke="#880000"/><text x="542" y="308" font-family="Verdana" font-size="7pt" fill="#0000FF" text-anchor="end">RC0</text><text x="551" y="304" font-family="Verdana" font-size="7pt" fill="#0000FF">16</text></g><g id="gge731"><circle class="pindot" cx="425" cy="325" r="2" fill="#4F4F4F"/><path d="M425 325h20" fill="none" stroke="#880000"/><text x="448" y="328" font-family="Verdana" font-size="7pt" fill="#0000FF">RA2</text><text x="439" y="324" font-family="Verdana" font-size="7pt" fill="#0000FF" text-anchor="end">17</text></g><g id="gge738"><circle class="pindot" cx="425" cy="315" r="2" fill="#4F4F4F"/><path d="M425 315h20" fill="none" stroke="#880000"/><text x="448" y="318" font-family="Verdana" font-size="7pt" fill="#0000FF">RA1ICSPCLK</text><text x="439" y="314" font-family="Verdana" font-size="7pt" fill="#0000FF" text-anchor="end">18</text><path d="M445 318l3-3-3-3" fill="none" stroke="#880000"/></g><g id="gge745"><circle class="pindot" cx="425" cy="305" r="2" fill="#4F4F4F"/><path d="M425 305h20" fill="none" stroke="#880000"/><text x="448" y="308" font-family="Verdana" font-size="7pt" fill="#0000FF">RA0ICSPDAT</text><text x="439" y="304" font-family="Verdana" font-size="7pt" fill="#0000FF" text-anchor="end">19</text></g><g id="gge752"><circle class="pindot" cx="565" cy="425" r="2" fill="#4F4F4F"/><path d="M565 425h-20" fill="none" stroke="#000000"/><text x="542" y="428" font-family="Verdana" font-size="7pt" fill="#000000" text-anchor="end">VSS</text><text x="551" y="424" font-family="Verdana" font-size="7pt" fill="#000000">20</text></g></g><g id="gge907"><circle class="pindot" cx="565" cy="485" r="2" fill="#4F4F4F"/><path stroke="#000000" id="gge910" stroke-width="1" fill="none" stroke-linecap="round" d="M565 495v-10"/><path stroke="#000000" id="gge911" stroke-width="1" fill="none" stroke-linecap="round" d="M556 495h18"/><path stroke="#000000" id="gge912" stroke-width="1" fill="none" stroke-linecap="round" d="M559 497h12"/><path stroke="#000000" id="gge913" stroke-width="1" fill="none" stroke-linecap="round" d="M562 499h6"/><path stroke="#000000" id="gge914" stroke-width="1" fill="none" stroke-linecap="round" d="M564 501h2"/></g><g id="gge923"><circle class="pindot" cx="425" cy="480" r="2" fill="#4F4F4F"/><text x="437.03" y="500" font-family="Times New Roman" font-size="12" fill="#000000" text-anchor="end">VCC</text><path stroke="#000000" id="gge926" stroke-width="1" fill="none" stroke-linecap="round" d="M425 490v-10"/><path stroke="#000000" id="gge927" stroke-width="1" fill="none" stroke-linecap="round" d="M430 490h-10"/></g><path stroke="#008800" id="gge934" stroke-width="1" fill="none" stroke-linecap="round" d="M425 425v55"/><path stroke="#008800" id="gge935" stroke-width="1" fill="none" stroke-linecap="round" d="M565 425v60"/><g id="gge962"><text x="547.438" y="116" fill="#000080" font-family="Arial" font-size="7pt" id="gge964">East-Red</text><text x="548.43" y="107" fill="#000080" font-family="Arial" font-size="7pt" id="gge966">LED1</text><path stroke="#880000" id="gge968" stroke-width="1" fill="none" stroke-linecap="round" d="M565 130l7-7"/><path stroke="#880000" id="gge969" stroke-width="1" fill="none" stroke-linecap="round" d="M561 126l7-7"/><path stroke="#880000" id="gge970" stroke-width="1" fill="none" stroke-linecap="round" d="M572 123l-4 2 2 2z"/><path stroke="#880000" id="gge971" stroke-width="1" fill="none" stroke-linecap="round" d="M568 119l-4 2 2 2z"/><g id="gge972"><circle class="pindot" cx="540" cy="140" r="2" fill="#4F4F4F"/><path d="M540 140h15" fill="none" stroke="#880000"/></g><g id="gge979"><circle class="pindot" cx="580" cy="140" r="2" fill="#4F4F4F"/><path d="M580 140h-15" fill="none" stroke="#880000"/></g><path d="M555 146l10-6-10-7z" id="gge986" stroke="#880000" stroke-width="1" fill="none"/><path stroke="#880000" id="gge987" stroke-width="1" fill="none" stroke-linecap="round" d="M565 147v-14"/></g><g id="gge989"><text x="547.438" y="166" fill="#000080" font-family="Arial" font-size="7pt" id="gge991">East-Yellow</text><text x="548.43" y="157" fill="#000080" font-family="Arial" font-size="7pt" id="gge993">LED2</text><path stroke="#880000" id="gge995" stroke-width="1" fill="none" stroke-linecap="round" d="M565 180l7-7"/><path stroke="#880000" id="gge996" stroke-width="1" fill="none" stroke-linecap="round" d="M561 176l7-7"/><path stroke="#880000" id="gge997" stroke-width="1" fill="none" stroke-linecap="round" d="M572 173l-4 2 2 2z"/><path stroke="#880000" id="gge998" stroke-width="1" fill="none" stroke-linecap="round" d="M568 169l-4 2 2 2z"/><g id="gge999"><circle class="pindot" cx="540" cy="190" r="2" fill="#4F4F4F"/><path d="M540 190h15" fill="none" stroke="#880000"/></g><g id="gge1006"><circle class="pindot" cx="580" cy="190" r="2" fill="#4F4F4F"/><path d="M580 190h-15" fill="none" stroke="#880000"/></g><path d="M555 196l10-6-10-7z" id="gge1013" stroke="#880000" stroke-width="1" fill="none"/><path stroke="#880000" id="gge1014" stroke-width="1" fill="none" stroke-linecap="round" d="M565 197v-14"/></g><g id="gge1016"><text x="547.438" y="216" fill="#000080" font-family="Arial" font-size="7pt" id="gge1018">East-Green</text><text x="548.43" y="207" fill="#000080" font-family="Arial" font-size="7pt" id="gge1020">LED3</text><path stroke="#880000" id="gge1022" stroke-width="1" fill="none" stroke-linecap="round" d="M565 230l7-7"/><path stroke="#880000" id="gge1023" stroke-width="1" fill="none" stroke-linecap="round" d="M561 226l7-7"/><path stroke="#880000" id="gge1024" stroke-width="1" fill="none" stroke-linecap="round" d="M572 223l-4 2 2 2z"/><path stroke="#880000" id="gge1025" stroke-width="1" fill="none" stroke-linecap="round" d="M568 219l-4 2 2 2z"/><g id="gge1026"><circle class="pindot" cx="540" cy="240" r="2" fill="#4F4F4F"/><path d="M540 240h15" fill="none" stroke="#880000"/></g><g id="gge1033"><circle class="pindot" cx="580" cy="240" r="2" fill="#4F4F4F"/><path d="M580 240h-15" fill="none" stroke="#880000"/></g><path d="M555 246l10-6-10-7z" id="gge1040" stroke="#880000" stroke-width="1" fill="none"/><path stroke="#880000" id="gge1041" stroke-width="1" fill="none" stroke-linecap="round" d="M565 247v-14"/></g><g id="gge1043"><text x="842.438" y="236" fill="#000080" font-family="Arial" font-size="7pt" id="gge1045">North-Red</text><text x="843.43" y="227" fill="#000080" font-family="Arial" font-size="7pt" id="gge1047">LED4</text><path stroke="#880000" id="gge1049" stroke-width="1" fill="none" stroke-linecap="round" d="M860 250l7-7"/><path stroke="#880000" id="gge1050" stroke-width="1" fill="none" stroke-linecap="round" d="M856 246l7-7"/><path stroke="#880000" id="gge1051" stroke-width="1" fill="none" stroke-linecap="round" d="M867 243l-4 2 2 2z"/><path stroke="#880000" id="gge1052" stroke-width="1" fill="none" stroke-linecap="round" d="M863 239l-4 2 2 2z"/><g id="gge1053"><circle class="pindot" cx="835" cy="260" r="2" fill="#4F4F4F"/><path d="M835 260h15" fill="none" stroke="#880000"/></g><g id="gge1060"><circle class="pindot" cx="875" cy="260" r="2" fill="#4F4F4F"/><path d="M875 260h-15" fill="none" stroke="#880000"/></g><path d="M850 266l10-6-10-7z" id="gge1067" stroke="#880000" stroke-width="1" fill="none"/><path stroke="#880000" id="gge1068" stroke-width="1" fill="none" stroke-linecap="round" d="M860 267v-14"/></g><g id="gge1070"><text x="842.438" y="286" fill="#000080" font-family="Arial" font-size="7pt" id="gge1072">North-Yellow</text><text x="843.43" y="277" fill="#000080" font-family="Arial" font-size="7pt" id="gge1074">LED5</text><path stroke="#880000" id="gge1076" stroke-width="1" fill="none" stroke-linecap="round" d="M860 300l7-7"/><path stroke="#880000" id="gge1077" stroke-width="1" fill="none" stroke-linecap="round" d="M856 296l7-7"/><path stroke="#880000" id="gge1078" stroke-width="1" fill="none" stroke-linecap="round" d="M867 293l-4 2 2 2z"/><path stroke="#880000" id="gge1079" stroke-width="1" fill="none" stroke-linecap="round" d="M863 289l-4 2 2 2z"/><g id="gge1080"><circle class="pindot" cx="835" cy="310" r="2" fill="#4F4F4F"/><path d="M835 310h15" fill="none" stroke="#880000"/></g><g id="gge1087"><circle class="pindot" cx="875" cy="310" r="2" fill="#4F4F4F"/><path d="M875 310h-15" fill="none" stroke="#880000"/></g><path d="M850 316l10-6-10-7z" id="gge1094" stroke="#880000" stroke-width="1" fill="none"/><path stroke="#880000" id="gge1095" stroke-width="1" fill="none" stroke-linecap="round" d="M860 317v-14"/></g><g id="gge1097"><text x="842.438" y="341" fill="#000080" font-family="Arial" font-size="7pt" id="gge1099">North-Green</text><text x="843.43" y="332" fill="#000080" font-family="Arial" font-size="7pt" id="gge1101">LED6</text><path stroke="#880000" id="gge1103" stroke-width="1" fill="none" stroke-linecap="round" d="M860 355l7-7"/><path stroke="#880000" id="gge1104" stroke-width="1" fill="none" stroke-linecap="round" d="M856 351l7-7"/><path stroke="#880000" id="gge1105" stroke-width="1" fill="none" stroke-linecap="round" d="M867 348l-4 2 2 2z"/><path stroke="#880000" id="gge1106" stroke-width="1" fill="none" stroke-linecap="round" d="M863 344l-4 2 2 2z"/><g id="gge1107"><circle class="pindot" cx="835" cy="365" r="2" fill="#4F4F4F"/><path d="M835 365h15" fill="none" stroke="#880000"/></g><g id="gge1114"><circle class="pindot" cx="875" cy="365" r="2" fill="#4F4F4F"/><path d="M875 365h-15" fill="none" stroke="#880000"/></g><path d="M850 371l10-6-10-7z" id="gge1121" stroke="#880000" stroke-width="1" fill="none"/><path stroke="#880000" id="gge1122" stroke-width="1" fill="none" stroke-linecap="round" d="M860 372v-14"/></g><g id="gge1150"><text x="493.125" y="132" fill="#000080" font-family="Arial" font-size="7pt" id="gge1152">330</text><text x="494.133" y="123" fill="#000080" font-family="Arial" font-size="7pt" id="gge1154">R1</text><path stroke="#A00000" id="gge1156" stroke-width="1" fill="none" stroke-linecap="round" d="M515 140l-3 5"/><path stroke="#A00000" id="gge1157" stroke-width="1" fill="none" stroke-linecap="round" d="M507 135l-5 10"/><path stroke="#A00000" id="gge1158" stroke-width="1" fill="none" stroke-linecap="round" d="M512 145l-5-10"/><g id="gge1159"><circle class="pindot" cx="520" cy="140" r="2" fill="#4F4F4F"/><path d="M520 140h-5" fill="none" stroke="#800"/></g><path stroke="#A00000" id="gge1166" stroke-width="1" fill="none" stroke-linecap="round" d="M493 145l-5-10"/><path stroke="#A00000" id="gge1167" stroke-width="1" fill="none" stroke-linecap="round" d="M502 145l-4-10"/><path stroke="#A00000" id="gge1168" stroke-width="1" fill="none" stroke-linecap="round" d="M498 135l-5 10"/><path stroke="#A00000" id="gge1169" stroke-width="1" fill="none" stroke-linecap="round" d="M488 135l-3 5"/><g id="gge1170"><circle class="pindot" cx="480" cy="140" r="2" fill="#4F4F4F"/><path d="M480 140h5" fill="none" stroke="#800"/></g></g><g id="gge1178"><text x="493.125" y="182" fill="#000080" font-family="Arial" font-size="7pt" id="gge1180">330</text><text x="494.133" y="173" fill="#000080" font-family="Arial" font-size="7pt" id="gge1182">R2</text><path stroke="#A00000" id="gge1184" stroke-width="1" fill="none" stroke-linecap="round" d="M515 190l-3 5"/><path stroke="#A00000" id="gge1185" stroke-width="1" fill="none" stroke-linecap="round" d="M507 185l-5 10"/><path stroke="#A00000" id="gge1186" stroke-width="1" fill="none" stroke-linecap="round" d="M512 195l-5-10"/><g id="gge1187"><circle class="pindot" cx="520" cy="190" r="2" fill="#4F4F4F"/><path d="M520 190h-5" fill="none" stroke="#800"/></g><path stroke="#A00000" id="gge1194" stroke-width="1" fill="none" stroke-linecap="round" d="M493 195l-5-10"/><path stroke="#A00000" id="gge1195" stroke-width="1" fill="none" stroke-linecap="round" d="M502 195l-4-10"/><path stroke="#A00000" id="gge1196" stroke-width="1" fill="none" stroke-linecap="round" d="M498 185l-5 10"/><path stroke="#A00000" id="gge1197" stroke-width="1" fill="none" stroke-linecap="round" d="M488 185l-3 5"/><g id="gge1198"><circle class="pindot" cx="480" cy="190" r="2" fill="#4F4F4F"/><path d="M480 190h5" fill="none" stroke="#800"/></g></g><g id="gge1206"><text x="493.125" y="232" fill="#000080" font-family="Arial" font-size="7pt" id="gge1208">330</text><text x="494.133" y="223" fill="#000080" font-family="Arial" font-size="7pt" id="gge1210">R3</text><path stroke="#A00000" id="gge1212" stroke-width="1" fill="none" stroke-linecap="round" d="M515 240l-3 5"/><path stroke="#A00000" id="gge1213" stroke-width="1" fill="none" stroke-linecap="round" d="M507 235l-5 10"/><path stroke="#A00000" id="gge1214" stroke-width="1" fill="none" stroke-linecap="round" d="M512 245l-5-10"/><g id="gge1215"><circle class="pindot" cx="520" cy="240" r="2" fill="#4F4F4F"/><path d="M520 240h-5" fill="none" stroke="#800"/></g><path stroke="#A00000" id="gge1222" stroke-width="1" fill="none" stroke-linecap="round" d="M493 245l-5-10"/><path stroke="#A00000" id="gge1223" stroke-width="1" fill="none" stroke-linecap="round" d="M502 245l-4-10"/><path stroke="#A00000" id="gge1224" stroke-width="1" fill="none" stroke-linecap="round" d="M498 235l-5 10"/><path stroke="#A00000" id="gge1225" stroke-width="1" fill="none" stroke-linecap="round" d="M488 235l-3 5"/><g id="gge1226"><circle class="pindot" cx="480" cy="240" r="2" fill="#4F4F4F"/><path d="M480 240h5" fill="none" stroke="#800"/></g></g><g id="gge1261"><text x="798.125" y="252" fill="#000080" font-family="Arial" font-size="7pt" id="gge1263">330</text><text x="799.133" y="243" fill="#000080" font-family="Arial" font-size="7pt" id="gge1265">R4</text><path stroke="#A00000" id="gge1267" stroke-width="1" fill="none" stroke-linecap="round" d="M820 260l-3 5"/><path stroke="#A00000" id="gge1268" stroke-width="1" fill="none" stroke-linecap="round" d="M812 255l-5 10"/><path stroke="#A00000" id="gge1269" stroke-width="1" fill="none" stroke-linecap="round" d="M817 265l-5-10"/><g id="gge1270"><circle class="pindot" cx="825" cy="260" r="2" fill="#4F4F4F"/><path d="M825 260h-5" fill="none" stroke="#800"/></g><path stroke="#A00000" id="gge1277" stroke-width="1" fill="none" stroke-linecap="round" d="M798 265l-5-10"/><path stroke="#A00000" id="gge1278" stroke-width="1" fill="none" stroke-linecap="round" d="M807 265l-4-10"/><path stroke="#A00000" id="gge1279" stroke-width="1" fill="none" stroke-linecap="round" d="M803 255l-5 10"/><path stroke="#A00000" id="gge1280" stroke-width="1" fill="none" stroke-linecap="round" d="M793 255l-3 5"/><g id="gge1281"><circle class="pindot" cx="785" cy="260" r="2" fill="#4F4F4F"/><path d="M785 260h5" fill="none" stroke="#800"/></g></g><g id="gge1289"><text x="793.125" y="302" fill="#000080" font-family="Arial" font-size="7pt" id="gge1291">330</text><text x="794.133" y="293" fill="#000080" font-family="Arial" font-size="7pt" id="gge1293">R5</text><path stroke="#A00000" id="gge1295" stroke-width="1" fill="none" stroke-linecap="round" d="M815 310l-3 5"/><path stroke="#A00000" id="gge1296" stroke-width="1" fill="none" stroke-linecap="round" d="M807 305l-5 10"/><path stroke="#A00000" id="gge1297" stroke-width="1" fill="none" stroke-linecap="round" d="M812 315l-5-10"/><g id="gge1298"><circle class="pindot" cx="820" cy="310" r="2" fill="#4F4F4F"/><path d="M820 310h-5" fill="none" stroke="#800"/></g><path stroke="#A00000" id="gge1305" stroke-width="1" fill="none" stroke-linecap="round" d="M793 315l-5-10"/><path stroke="#A00000" id="gge1306" stroke-width="1" fill="none" stroke-linecap="round" d="M802 315l-4-10"/><path stroke="#A00000" id="gge1307" stroke-width="1" fill="none" stroke-linecap="round" d="M798 305l-5 10"/><path stroke="#A00000" id="gge1308" stroke-width="1" fill="none" stroke-linecap="round" d="M788 305l-3 5"/><g id="gge1309"><circle class="pindot" cx="780" cy="310" r="2" fill="#4F4F4F"/><path d="M780 310h5" fill="none" stroke="#800"/></g></g><g id="gge1317"><text x="793.125" y="357" fill="#000080" font-family="Arial" font-size="7pt" id="gge1319">330</text><text x="794.133" y="348" fill="#000080" font-family="Arial" font-size="7pt" id="gge1321">R6</text><path stroke="#A00000" id="gge1323" stroke-width="1" fill="none" stroke-linecap="round" d="M815 365l-3 5"/><path stroke="#A00000" id="gge1324" stroke-width="1" fill="none" stroke-linecap="round" d="M807 360l-5 10"/><path stroke="#A00000" id="gge1325" stroke-width="1" fill="none" stroke-linecap="round" d="M812 370l-5-10"/><g id="gge1326"><circle class="pindot" cx="820" cy="365" r="2" fill="#4F4F4F"/><path d="M820 365h-5" fill="none" stroke="#800"/></g><path stroke="#A00000" id="gge1333" stroke-width="1" fill="none" stroke-linecap="round" d="M793 370l-5-10"/><path stroke="#A00000" id="gge1334" stroke-width="1" fill="none" stroke-linecap="round" d="M802 370l-4-10"/><path stroke="#A00000" id="gge1335" stroke-width="1" fill="none" stroke-linecap="round" d="M798 360l-5 10"/><path stroke="#A00000" id="gge1336" stroke-width="1" fill="none" stroke-linecap="round" d="M788 360l-3 5"/><g id="gge1337"><circle class="pindot" cx="780" cy="365" r="2" fill="#4F4F4F"/><path d="M780 365h5" fill="none" stroke="#800"/></g></g><g id="gge1514"><text x="808.984" y="427" fill="#000080" font-family="Arial" font-size="7pt" id="gge1516">North</text><text x="809.992" y="418" fill="#000080" font-family="Arial" font-size="7pt" id="gge1518">SW1</text><g id="gge1520"><circle class="pindot" cx="785" cy="440" r="2" fill="#4F4F4F"/><path d="M785 440h20" fill="none" stroke="#000000"/></g><path stroke="#880000" id="gge1527" stroke-width="1" fill="none" stroke-linecap="round" d="M805 433v1h30v-1h-11v-3h-8v3z"/><path d="M811 440a3 3 0 1 0 0 .005" id="gge1528" stroke="#880000" stroke-width="1" fill="none"/><g id="gge1529"><circle class="pindot" cx="855" cy="440" r="2" fill="#4F4F4F"/><path d="M855 440h-20" fill="none" stroke="#000000"/></g><path d="M835 440a3 3 0 1 0 0 .005" id="gge1536" stroke="#880000" stroke-width="1" fill="none"/></g><g id="gge1538"><text x="328.984" y="162" fill="#000080" font-family="Arial" font-size="7pt" id="gge1540">East</text><text x="329.992" y="153" fill="#000080" font-family="Arial" font-size="7pt" id="gge1542">SW2</text><g id="gge1544"><circle class="pindot" cx="305" cy="175" r="2" fill="#4F4F4F"/><path d="M305 175h20" fill="none" stroke="#000000"/></g><path stroke="#880000" id="gge1551" stroke-width="1" fill="none" stroke-linecap="round" d="M325 168v1h30v-1h-11v-3h-8v3z"/><path d="M331 175a3 3 0 1 0 0 .005" id="gge1552" stroke="#880000" stroke-width="1" fill="none"/><g id="gge1553"><circle class="pindot" cx="375" cy="175" r="2" fill="#4F4F4F"/><path d="M375 175h-20" fill="none" stroke="#000000"/></g><path d="M355 175a3 3 0 1 0 0 .005" id="gge1560" stroke="#880000" stroke-width="1" fill="none"/></g><g id="gge1585"><text x="792" y="477.344" fill="#000080" font-family="Arial" font-size="7pt" id="gge1587">4.7k</text><text x="792" y="468.227" fill="#000080" font-family="Arial" font-size="7pt" id="gge1589">R7</text><path stroke="#A00000" id="gge1591" stroke-width="1" fill="none" stroke-linecap="round" d="M785 450l5 3"/><path stroke="#A00000" id="gge1592" stroke-width="1" fill="none" stroke-linecap="round" d="M780 458l10 5"/><path stroke="#A00000" id="gge1593" stroke-width="1" fill="none" stroke-linecap="round" d="M790 453l-10 5"/><g id="gge1594"><circle class="pindot" cx="785" cy="445" r="2" fill="#4F4F4F"/><path d="M785 445v5" fill="none" stroke="#800"/></g><path stroke="#A00000" id="gge1601" stroke-width="1" fill="none" stroke-linecap="round" d="M790 472l-10 5"/><path stroke="#A00000" id="gge1602" stroke-width="1" fill="none" stroke-linecap="round" d="M790 463l-10 4"/><path stroke="#A00000" id="gge1603" stroke-width="1" fill="none" stroke-linecap="round" d="M780 467l10 5"/><path stroke="#A00000" id="gge1604" stroke-width="1" fill="none" stroke-linecap="round" d="M780 477l5 3"/><g id="gge1605"><circle class="pindot" cx="785" cy="485" r="2" fill="#4F4F4F"/><path d="M785 485v-5" fill="none" stroke="#800"/></g></g><g id="gge1613"><text x="312" y="212.344" fill="#000080" font-family="Arial" font-size="7pt" id="gge1615">4.7k</text><text x="312" y="203.227" fill="#000080" font-family="Arial" font-size="7pt" id="gge1617">R8</text><path stroke="#A00000" id="gge1619" stroke-width="1" fill="none" stroke-linecap="round" d="M305 185l5 3"/><path stroke="#A00000" id="gge1620" stroke-width="1" fill="none" stroke-linecap="round" d="M300 193l10 5"/><path stroke="#A00000" id="gge1621" stroke-width="1" fill="none" stroke-linecap="round" d="M310 188l-10 5"/><g id="gge1622"><circle class="pindot" cx="305" cy="180" r="2" fill="#4F4F4F"/><path d="M305 180v5" fill="none" stroke="#800"/></g><path stroke="#A00000" id="gge1629" stroke-width="1" fill="none" stroke-linecap="round" d="M310 207l-10 5"/><path stroke="#A00000" id="gge1630" stroke-width="1" fill="none" stroke-linecap="round" d="M310 198l-10 4"/><path stroke="#A00000" id="gge1631" stroke-width="1" fill="none" stroke-linecap="round" d="M300 202l10 5"/><path stroke="#A00000" id="gge1632" stroke-width="1" fill="none" stroke-linecap="round" d="M300 212l5 3"/><g id="gge1633"><circle class="pindot" cx="305" cy="220" r="2" fill="#4F4F4F"/><path d="M305 220v-5" fill="none" stroke="#800"/></g></g><path stroke="#008800" id="gge1751" stroke-width="1" fill="none" stroke-linecap="round" d="M775 440h10v5"/><path stroke="#008800" id="gge1754" stroke-width="1" fill="none" stroke-linecap="round" d="M305 180v-5h-10"/><g id="gge1757"><circle class="pindot" cx="375" cy="190" r="2" fill="#4F4F4F"/><text x="387.03" y="210" font-family="Times New Roman" font-size="12" fill="#000000" text-anchor="end">VCC</text><path stroke="#000000" id="gge1760" stroke-width="1" fill="none" stroke-linecap="round" d="M375 200v-10"/><path stroke="#000000" id="gge1761" stroke-width="1" fill="none" stroke-linecap="round" d="M380 200h-10"/></g><g id="gge1762"><circle class="pindot" cx="855" cy="480" r="2" fill="#4F4F4F"/><text x="867.03" y="500" font-family="Times New Roman" font-size="12" fill="#000000" text-anchor="end">VCC</text><path stroke="#000000" id="gge1765" stroke-width="1" fill="none" stroke-linecap="round" d="M855 490v-10"/><path stroke="#000000" id="gge1766" stroke-width="1" fill="none" stroke-linecap="round" d="M860 490h-10"/></g><path stroke="#008800" id="gge1772" stroke-width="1" fill="none" stroke-linecap="round" d="M375 190v-15"/><path stroke="#008800" id="gge1773" stroke-width="1" fill="none" stroke-linecap="round" d="M855 480v-40"/><g id="gge1774"><circle class="pindot" cx="305" cy="225" r="2" fill="#4F4F4F"/><path stroke="#000000" id="gge1777" stroke-width="1" fill="none" stroke-linecap="round" d="M305 235v-10"/><path stroke="#000000" id="gge1778" stroke-width="1" fill="none" stroke-linecap="round" d="M296 235h18"/><path stroke="#000000" id="gge1779" stroke-width="1" fill="none" stroke-linecap="round" d="M299 237h12"/><path stroke="#000000" id="gge1780" stroke-width="1" fill="none" stroke-linecap="round" d="M302 239h6"/><path stroke="#000000" id="gge1781" stroke-width="1" fill="none" stroke-linecap="round" d="M304 241h2"/></g><g id="gge1782"><circle class="pindot" cx="785" cy="490" r="2" fill="#4F4F4F"/><path stroke="#000000" id="gge1785" stroke-width="1" fill="none" stroke-linecap="round" d="M785 500v-10"/><path stroke="#000000" id="gge1786" stroke-width="1" fill="none" stroke-linecap="round" d="M776 500h18"/><path stroke="#000000" id="gge1787" stroke-width="1" fill="none" stroke-linecap="round" d="M779 502h12"/><path stroke="#000000" id="gge1788" stroke-width="1" fill="none" stroke-linecap="round" d="M782 504h6"/><path stroke="#000000" id="gge1789" stroke-width="1" fill="none" stroke-linecap="round" d="M784 506h2"/></g><path stroke="#008800" id="gge1798" stroke-width="1" fill="none" stroke-linecap="round" d="M305 220v5"/><path stroke="#008800" id="gge1799" stroke-width="1" fill="none" stroke-linecap="round" d="M785 485v5"/><g id="gge1800"><circle class="pindot" cx="580" cy="305" r="2" fill="#4F4F4F"/><text x="601.25" y="307.17" font-family="Times New Roman" font-size="8pt" fill="#0000FF">East-Red</text><path stroke="#0000FF" id="gge1803" stroke-width="1" fill="none" stroke-linecap="round" d="M580 305l5-5h15v10h-15l-5-5"/></g><g id="gge1808"><circle class="pindot" cx="410" cy="385" r="2" fill="#4F4F4F"/><text x="388.11" y="389.85" font-family="Times New Roman" font-size="8pt" fill="#0000FF" text-anchor="end">East-Sw</text><path stroke="#0000FF" id="gge1811" stroke-width="1" fill="none" stroke-linecap="round" d="M410 385l-5 5h-15v-10h15l5 5"/></g><g id="gge1812"><circle class="pindot" cx="410" cy="395" r="2" fill="#4F4F4F"/><text x="388.11" y="399.83" font-family="Times New Roman" font-size="8pt" fill="#0000FF" text-anchor="end">North-Sw</text><path stroke="#0000FF" id="gge1815" stroke-width="1" fill="none" stroke-linecap="round" d="M410 395l-5 5h-15v-10h15l5 5"/></g><g id="gge1821"><circle class="pindot" cx="295" cy="175" r="2" fill="#4F4F4F"/><text x="273.11" y="179.85" font-family="Times New Roman" font-size="8pt" fill="#0000FF" text-anchor="end">East-Sw</text><path stroke="#0000FF" id="gge1824" stroke-width="1" fill="none" stroke-linecap="round" d="M295 175l-5 5h-15v-10h15l5 5"/></g><path stroke="#008800" id="gge1827" stroke-width="1" fill="none" stroke-linecap="round" d="M410 385h15"/><path stroke="#008800" id="gge1828" stroke-width="1" fill="none" stroke-linecap="round" d="M410 395h15"/><g id="gge1830"><circle class="pindot" cx="775" cy="440" r="2" fill="#4F4F4F"/><text x="753.11" y="444.83" font-family="Times New Roman" font-size="8pt" fill="#0000FF" text-anchor="end">North-Sw</text><path stroke="#0000FF" id="gge1833" stroke-width="1" fill="none" stroke-linecap="round" d="M775 440l-5 5h-15v-10h15l5 5"/></g><g id="gge1841"><circle class="pindot" cx="580" cy="315" r="2" fill="#4F4F4F"/><text x="601.25" y="317.17" font-family="Times New Roman" font-size="8pt" fill="#0000FF">East-Yellow</text><path stroke="#0000FF" id="gge1844" stroke-width="1" fill="none" stroke-linecap="round" d="M580 315l5-5h15v10h-15l-5-5"/></g><g id="gge1846"><circle class="pindot" cx="580" cy="325" r="2" fill="#4F4F4F"/><text x="601.25" y="327.17" font-family="Times New Roman" font-size="8pt" fill="#0000FF">East-Green</text><path stroke="#0000FF" id="gge1849" stroke-width="1" fill="none" stroke-linecap="round" d="M580 325l5-5h15v10h-15l-5-5"/></g><g id="gge1851"><circle class="pindot" cx="600" cy="340" r="2" fill="#4F4F4F"/><text x="621.25" y="342.17" font-family="Times New Roman" font-size="8pt" fill="#0000FF">North-Red</text><path stroke="#0000FF" id="gge1854" stroke-width="1" fill="none" stroke-linecap="round" d="M600 340l5-5h15v10h-15l-5-5"/></g><g id="gge1855"><circle class="pindot" cx="600" cy="350" r="2" fill="#4F4F4F"/><text x="621.25" y="352.17" font-family="Times New Roman" font-size="8pt" fill="#0000FF">North-Yellow</text><path stroke="#0000FF" id="gge1858" stroke-width="1" fill="none" stroke-linecap="round" d="M600 350l5-5h15v10h-15l-5-5"/></g><g id="gge1859"><circle class="pindot" cx="600" cy="360" r="2" fill="#4F4F4F"/><text x="621.25" y="362.17" font-family="Times New Roman" font-size="8pt" fill="#0000FF">North-Green</text><path stroke="#0000FF" id="gge1862" stroke-width="1" fill="none" stroke-linecap="round" d="M600 360l5-5h15v10h-15l-5-5"/></g><g id="gge1864"><circle class="pindot" cx="470" cy="140" r="2" fill="#4F4F4F"/><text x="448.11" y="144.85" font-family="Times New Roman" font-size="8pt" fill="#0000FF" text-anchor="end">East-Red</text><path stroke="#0000FF" id="gge1867" stroke-width="1" fill="none" stroke-linecap="round" d="M470 140l-5 5h-15v-10h15l5 5"/></g><g id="gge1868"><circle class="pindot" cx="470" cy="190" r="2" fill="#4F4F4F"/><text x="448.45" y="194.85" font-family="Times New Roman" font-size="8pt" fill="#0000FF" text-anchor="end">East-Yellow</text><path stroke="#0000FF" id="gge1871" stroke-width="1" fill="none" stroke-linecap="round" d="M470 190l-5 5h-15v-10h15l5 5"/></g><g id="gge1872"><circle class="pindot" cx="470" cy="240" r="2" fill="#4F4F4F"/><text x="448.1" y="244.85" font-family="Times New Roman" font-size="8pt" fill="#0000FF" text-anchor="end">East-Green</text><path stroke="#0000FF" id="gge1875" stroke-width="1" fill="none" stroke-linecap="round" d="M470 240l-5 5h-15v-10h15l5 5"/></g><g id="gge1877"><circle class="pindot" cx="770" cy="260" r="2" fill="#4F4F4F"/><text x="748.1" y="264.85" font-family="Times New Roman" font-size="8pt" fill="#0000FF" text-anchor="end">North-Red</text><path stroke="#0000FF" id="gge1880" stroke-width="1" fill="none" stroke-linecap="round" d="M770 260l-5 5h-15v-10h15l5 5"/></g><g id="gge1881"><circle class="pindot" cx="770" cy="310" r="2" fill="#4F4F4F"/><text x="748.46" y="314.85" font-family="Times New Roman" font-size="8pt" fill="#0000FF" text-anchor="end">North-Yellow</text><path stroke="#0000FF" id="gge1884" stroke-width="1" fill="none" stroke-linecap="round" d="M770 310l-5 5h-15v-10h15l5 5"/></g><g id="gge1885"><circle class="pindot" cx="770" cy="365" r="2" fill="#4F4F4F"/><text x="748.1" y="369.83" font-family="Times New Roman" font-size="8pt" fill="#0000FF" text-anchor="end">North-Green</text><path stroke="#0000FF" id="gge1888" stroke-width="1" fill="none" stroke-linecap="round" d="M770 365l-5 5h-15v-10h15l5 5"/></g><path stroke="#008800" id="gge1889" stroke-width="1" fill="none" stroke-linecap="round" d="M565 305h15"/><path stroke="#008800" id="gge1890" stroke-width="1" fill="none" stroke-linecap="round" d="M565 315h15"/><path stroke="#008800" id="gge1891" stroke-width="1" fill="none" stroke-linecap="round" d="M565 325h15"/><path stroke="#008800" id="gge1892" stroke-width="1" fill="none" stroke-linecap="round" d="M600 340h-15v-5h-20"/><path stroke="#008800" id="gge1893" stroke-width="1" fill="none" stroke-linecap="round" d="M600 350h-15v-5h-20"/><path stroke="#008800" id="gge1894" stroke-width="1" fill="none" stroke-linecap="round" d="M600 360h-15v-5h-20"/><path stroke="#008800" id="gge1895" stroke-width="1" fill="none" stroke-linecap="round" d="M470 140h10"/><path stroke="#008800" id="gge1896" stroke-width="1" fill="none" stroke-linecap="round" d="M470 190h10"/><path stroke="#008800" id="gge1897" stroke-width="1" fill="none" stroke-linecap="round" d="M470 240h10"/><path stroke="#008800" id="gge1899" stroke-width="1" fill="none" stroke-linecap="round" d="M520 140h20"/><path stroke="#008800" id="gge1900" stroke-width="1" fill="none" stroke-linecap="round" d="M520 190h20"/><path stroke="#008800" id="gge1901" stroke-width="1" fill="none" stroke-linecap="round" d="M520 240h20"/><g id="gge1902"><circle class="pindot" cx="605" cy="250" r="2" fill="#4F4F4F"/><path stroke="#000000" id="gge1905" stroke-width="1" fill="none" stroke-linecap="round" d="M605 260v-10"/><path stroke="#000000" id="gge1906" stroke-width="1" fill="none" stroke-linecap="round" d="M596 260h18"/><path stroke="#000000" id="gge1907" stroke-width="1" fill="none" stroke-linecap="round" d="M599 262h12"/><path stroke="#000000" id="gge1908" stroke-width="1" fill="none" stroke-linecap="round" d="M602 264h6"/><path stroke="#000000" id="gge1909" stroke-width="1" fill="none" stroke-linecap="round" d="M604 266h2"/></g><path stroke="#008800" id="gge1918" stroke-width="1" fill="none" stroke-linecap="round" d="M580 140h25v110"/><path stroke="#008800" id="gge1919" stroke-width="1" fill="none" stroke-linecap="round" d="M580 190h25"/><path stroke="#008800" id="gge1921" stroke-width="1" fill="none" stroke-linecap="round" d="M580 240h25"/><path stroke="#008800" id="gge1923" stroke-width="1" fill="none" stroke-linecap="round" d="M770 260h15"/><path stroke="#008800" id="gge1924" stroke-width="1" fill="none" stroke-linecap="round" d="M770 310h10"/><path stroke="#008800" id="gge1925" stroke-width="1" fill="none" stroke-linecap="round" d="M770 365h10"/><path stroke="#008800" id="gge1926" stroke-width="1" fill="none" stroke-linecap="round" d="M820 310h15"/><path stroke="#008800" id="gge1927" stroke-width="1" fill="none" stroke-linecap="round" d="M825 260h10"/><path stroke="#008800" id="gge1928" stroke-width="1" fill="none" stroke-linecap="round" d="M820 365h15"/><g id="gge1929"><circle class="pindot" cx="900" cy="385" r="2" fill="#4F4F4F"/><path stroke="#000000" id="gge1932" stroke-width="1" fill="none" stroke-linecap="round" d="M900 395v-10"/><path stroke="#000000" id="gge1933" stroke-width="1" fill="none" stroke-linecap="round" d="M891 395h18"/><path stroke="#000000" id="gge1934" stroke-width="1" fill="none" stroke-linecap="round" d="M894 397h12"/><path stroke="#000000" id="gge1935" stroke-width="1" fill="none" stroke-linecap="round" d="M897 399h6"/><path stroke="#000000" id="gge1936" stroke-width="1" fill="none" stroke-linecap="round" d="M899 401h2"/></g><path stroke="#008800" id="gge1945" stroke-width="1" fill="none" stroke-linecap="round" d="M875 260h25v125"/><path stroke="#008800" id="gge1946" stroke-width="1" fill="none" stroke-linecap="round" d="M875 310h25"/><path stroke="#008800" id="gge1948" stroke-width="1" fill="none" stroke-linecap="round" d="M875 365h25"/><g id="gge1949"><circle class="pindot" cx="900" cy="365" r="2" fill="#4F4F4F"/><circle cx="900" cy="365" r="2.5" fill="#CC0000"/></g><g id="gge1922"><circle class="pindot" cx="605" cy="240" r="2" fill="#4F4F4F"/><circle cx="605" cy="240" r="2.5" fill="#CC0000"/></g><g id="gge1826"><circle class="pindot" cx="305" cy="175" r="2" fill="#4F4F4F"/><circle cx="305" cy="175" r="2.5" fill="#CC0000"/></g><g id="gge1753"><circle class="pindot" cx="785" cy="440" r="2" fill="#4F4F4F"/><circle cx="785" cy="440" r="2.5" fill="#CC0000"/></g><g id="gge1920"><circle class="pindot" cx="605" cy="190" r="2" fill="#4F4F4F"/><circle cx="605" cy="190" r="2.5" fill="#CC0000"/></g><g id="gge1947"><circle class="pindot" cx="900" cy="310" r="2" fill="#4F4F4F"/><circle cx="900" cy="310" r="2.5" fill="#CC0000"/></g></g></svg>